<svg width="24" height="24" viewBox="0 0 24 24" fill="none" xmlns="http://www.w3.org/2000/svg">
<g clip-path="url(#clip0_2091_1917)">
<path d="M6.5 7.33331H17.5" stroke="#00B956" stroke-width="2" stroke-linecap="round" stroke-linejoin="round"/>
<path d="M6 20.3333V18.3333C6 16.742 6.63214 15.2159 7.75736 14.0907C8.88258 12.9655 10.4087 12.3333 12 12.3333C13.5913 12.3333 15.1174 12.9655 16.2426 14.0907C17.3679 15.2159 18 16.742 18 18.3333V20.3333C18 20.5985 17.8946 20.8529 17.7071 21.0404C17.5196 21.228 17.2652 21.3333 17 21.3333H7C6.73478 21.3333 6.48043 21.228 6.29289 21.0404C6.10536 20.8529 6 20.5985 6 20.3333Z" stroke="#00B956" stroke-width="2" stroke-linecap="round" stroke-linejoin="round"/>
<path d="M6 4.33331V6.33331C6 7.92461 6.63214 9.45074 7.75736 10.576C8.88258 11.7012 10.4087 12.3333 12 12.3333C13.5913 12.3333 15.1174 11.7012 16.2426 10.576C17.3679 9.45074 18 7.92461 18 6.33331V4.33331C18 4.0681 17.8946 3.81374 17.7071 3.62621C17.5196 3.43867 17.2652 3.33331 17 3.33331H7C6.73478 3.33331 6.48043 3.43867 6.29289 3.62621C6.10536 3.81374 6 4.0681 6 4.33331Z" stroke="#00B956" stroke-width="2" stroke-linecap="round" stroke-linejoin="round"/>
</g>
<defs>
<clipPath id="clip0_2091_1917">
<rect width="24" height="24" fill="white"/>
</clipPath>
</defs>
</svg>
