<svg width="24" height="24" viewBox="0 0 24 24" fill="none" xmlns="http://www.w3.org/2000/svg">
<g clip-path="url(#clip0_2091_1925)">
<path d="M3 12.3333H4M12 3.33331V4.33331M20 12.3333H21M5.6 5.93331L6.3 6.63331M18.4 5.93331L17.7 6.63331" stroke="#00B956" stroke-width="2" stroke-linecap="round" stroke-linejoin="round"/>
<path d="M9 16.3333C8.16047 15.7037 7.54033 14.8258 7.22743 13.8242C6.91453 12.8225 6.92473 11.7477 7.25658 10.7522C7.58844 9.75661 8.22512 8.8907 9.07645 8.2771C9.92778 7.6635 10.9506 7.33331 12 7.33331C13.0494 7.33331 14.0722 7.6635 14.9236 8.2771C15.7749 8.8907 16.4116 9.75661 16.7434 10.7522C17.0753 11.7477 17.0855 12.8225 16.7726 13.8242C16.4597 14.8258 15.8395 15.7037 15 16.3333C14.6096 16.7198 14.3156 17.1928 14.1419 17.7139C13.9681 18.2351 13.9195 18.7899 14 19.3333C14 19.8637 13.7893 20.3725 13.4142 20.7475C13.0391 21.1226 12.5304 21.3333 12 21.3333C11.4696 21.3333 10.9609 21.1226 10.5858 20.7475C10.2107 20.3725 10 19.8637 10 19.3333C10.0805 18.7899 10.0319 18.2351 9.85813 17.7139C9.6844 17.1928 9.39043 16.7198 9 16.3333Z" stroke="#00B956" stroke-width="2" stroke-linecap="round" stroke-linejoin="round"/>
<path d="M9.7 17.3333H14.3" stroke="#00B956" stroke-width="2" stroke-linecap="round" stroke-linejoin="round"/>
</g>
<defs>
<clipPath id="clip0_2091_1925">
<rect width="24" height="24" fill="white"/>
</clipPath>
</defs>
</svg>
