<svg width="24" height="24" viewBox="0 0 24 24" fill="none" xmlns="http://www.w3.org/2000/svg">
<g clip-path="url(#clip0_2091_1910)">
<path d="M3 12.3333C3 13.5152 3.23279 14.6855 3.68508 15.7775C4.13738 16.8694 4.80031 17.8615 5.63604 18.6973C6.47177 19.533 7.46392 20.1959 8.55585 20.6482C9.64778 21.1005 10.8181 21.3333 12 21.3333C13.1819 21.3333 14.3522 21.1005 15.4442 20.6482C16.5361 20.1959 17.5282 19.533 18.364 18.6973C19.1997 17.8615 19.8626 16.8694 20.3149 15.7775C20.7672 14.6855 21 13.5152 21 12.3333C21 9.94636 20.0518 7.65718 18.364 5.96935C16.6761 4.28152 14.3869 3.33331 12 3.33331C9.61305 3.33331 7.32387 4.28152 5.63604 5.96935C3.94821 7.65718 3 9.94636 3 12.3333Z" stroke="#00B956" stroke-width="2" stroke-linecap="round" stroke-linejoin="round"/>
<path d="M12 16.3333V16.3433" stroke="#00B956" stroke-width="2" stroke-linecap="round" stroke-linejoin="round"/>
<path d="M12 13.3333C12.4498 13.3347 12.8868 13.1844 13.2407 12.9068C13.5945 12.6291 13.8444 12.2403 13.95 11.8031C14.0557 11.366 14.0109 10.906 13.8229 10.4974C13.6349 10.0888 13.3147 9.75551 12.914 9.55132C12.5162 9.34753 12.0611 9.28435 11.6228 9.37204C11.1845 9.45974 10.7888 9.69315 10.5 10.0343" stroke="#00B956" stroke-width="2" stroke-linecap="round" stroke-linejoin="round"/>
</g>
<defs>
<clipPath id="clip0_2091_1910">
<rect width="24" height="24" fill="white"/>
</clipPath>
</defs>
</svg>
